<svg xmlns="http://www.w3.org/2000/svg" viewBox="0 0 128 128">
  <defs>
    <filter id="glow" x="-20%" y="-20%" width="140%" height="140%">
      <feGaussianBlur stdDeviation="1.2" result="blur"/>
      <feComposite in="SourceGraphic" in2="blur" operator="over"/>
    </filter>
    <linearGradient id="core-grad" x1="0%" y1="0%" x2="100%" y2="100%">
      <stop offset="0%" stop-color="#f5f3ff"/>
      <stop offset="100%" stop-color="#ede9fe"/>
    </linearGradient>
    <radialGradient id="aura" cx="0.5" cy="0.5" r="0.5">
      <stop offset="0%" stop-color="#7C3AED" stop-opacity="0.06"/>
      <stop offset="100%" stop-color="#7C3AED" stop-opacity="0"/>
    </radialGradient>
  </defs>
  <!-- Light background -->
  <rect width="128" height="128" fill="#FAF8FF"/>
  <!-- Hex grid pattern -->
  <g stroke="#E9E3F5" stroke-width="0.4" fill="none" opacity="0.7">
    <path d="M0,16 L8,12 16,16 16,24 8,28 0,24Z"/>
    <path d="M16,16 L24,12 32,16 32,24 24,28 16,24Z"/>
    <path d="M32,16 L40,12 48,16 48,24 40,28 32,24Z"/>
    <path d="M48,16 L56,12 64,16 64,24 56,28 48,24Z"/>
    <path d="M64,16 L72,12 80,16 80,24 72,28 64,24Z"/>
    <path d="M80,16 L88,12 96,16 96,24 88,28 80,24Z"/>
    <path d="M96,16 L104,12 112,16 112,24 104,28 96,24Z"/>
    <path d="M112,16 L120,12 128,16 128,24 120,28 112,24Z"/>
    <path d="M8,28 L16,24 24,28 24,36 16,40 8,36Z"/>
    <path d="M24,28 L32,24 40,28 40,36 32,40 24,36Z"/>
    <path d="M40,28 L48,24 56,28 56,36 48,40 40,36Z"/>
    <path d="M56,28 L64,24 72,28 72,36 64,40 56,36Z"/>
    <path d="M72,28 L80,24 88,28 88,36 80,40 72,36Z"/>
    <path d="M88,28 L96,24 104,28 104,36 96,40 88,36Z"/>
    <path d="M104,28 L112,24 120,28 120,36 112,40 104,36Z"/>
    <path d="M0,40 L8,36 16,40 16,48 8,52 0,48Z"/>
    <path d="M16,40 L24,36 32,40 32,48 24,52 16,48Z"/>
    <path d="M32,40 L40,36 48,40 48,48 40,52 32,48Z"/>
    <path d="M48,40 L56,36 64,40 64,48 56,52 48,48Z"/>
    <path d="M64,40 L72,36 80,40 80,48 72,52 64,48Z"/>
    <path d="M80,40 L88,36 96,40 96,48 88,52 80,48Z"/>
    <path d="M96,40 L104,36 112,40 112,48 104,52 96,48Z"/>
    <path d="M112,40 L120,36 128,40 128,48 120,52 112,48Z"/>
    <path d="M8,52 L16,48 24,52 24,60 16,64 8,60Z"/>
    <path d="M24,52 L32,48 40,52 40,60 32,64 24,60Z"/>
    <path d="M40,52 L48,48 56,52 56,60 48,64 40,60Z"/>
    <path d="M72,52 L80,48 88,52 88,60 80,64 72,60Z"/>
    <path d="M88,52 L96,48 104,52 104,60 96,64 88,60Z"/>
    <path d="M104,52 L112,48 120,52 120,60 112,64 104,60Z"/>
    <path d="M8,76 L16,72 24,76 24,84 16,88 8,84Z"/>
    <path d="M24,76 L32,72 40,76 40,84 32,88 24,84Z"/>
    <path d="M88,76 L96,72 104,76 104,84 96,88 88,84Z"/>
    <path d="M104,76 L112,72 120,76 120,84 112,88 104,84Z"/>
    <path d="M0,88 L8,84 16,88 16,96 8,100 0,96Z"/>
    <path d="M16,88 L24,84 32,88 32,96 24,100 16,96Z"/>
    <path d="M32,88 L40,84 48,88 48,96 40,100 32,96Z"/>
    <path d="M48,88 L56,84 64,88 64,96 56,100 48,96Z"/>
    <path d="M64,88 L72,84 80,88 80,96 72,100 64,96Z"/>
    <path d="M80,88 L88,84 96,88 96,96 88,100 80,96Z"/>
    <path d="M96,88 L104,84 112,88 112,96 104,100 96,96Z"/>
    <path d="M112,88 L120,84 128,88 128,96 120,100 112,96Z"/>
    <path d="M8,100 L16,96 24,100 24,108 16,112 8,108Z"/>
    <path d="M24,100 L32,96 40,100 40,108 32,112 24,108Z"/>
    <path d="M40,100 L48,96 56,100 56,108 48,112 40,108Z"/>
    <path d="M56,100 L64,96 72,100 72,108 64,112 56,108Z"/>
    <path d="M72,100 L80,96 88,100 88,108 80,112 72,108Z"/>
    <path d="M88,100 L96,96 104,100 104,108 96,112 88,108Z"/>
    <path d="M104,100 L112,96 120,100 120,108 112,112 104,108Z"/>
  </g>
  <!-- AI aura -->
  <circle cx="64" cy="64" r="52" fill="url(#aura)"/>
  <!-- Protocol rings -->
  <circle cx="64" cy="64" r="54" stroke="#DDD6FE" stroke-width="0.7" fill="none"/>
  <circle cx="64" cy="64" r="42" stroke="#C4B5FD" stroke-width="0.4" stroke-dasharray="2 4" fill="none"/>
  <circle cx="64" cy="64" r="58" stroke="#EDE9FE" stroke-width="0.4" stroke-dasharray="1 6" fill="none" opacity="0.6"/>
  <!-- Data lines -->
  <g stroke="#8B5CF6" stroke-width="0.5" stroke-dasharray="1.5 2.5" opacity="0.35">
    <line x1="64" y1="42" x2="64" y2="10"/>
    <line x1="64" y1="86" x2="64" y2="118"/>
    <line x1="42" y1="64" x2="10" y2="64"/>
    <line x1="86" y1="64" x2="118" y2="64"/>
    <line x1="48" y1="48" x2="24" y2="24"/>
    <line x1="80" y1="48" x2="104" y2="24"/>
    <line x1="48" y1="80" x2="24" y2="104"/>
    <line x1="80" y1="80" x2="104" y2="104"/>
  </g>
  <!-- Network nodes -->
  <g fill="#8B5CF6" opacity="0.4" filter="url(#glow)">
    <circle cx="10" cy="64" r="1.6"/>
    <circle cx="118" cy="64" r="1.6"/>
    <circle cx="64" cy="10" r="1.6"/>
    <circle cx="64" cy="118" r="1.6"/>
    <circle cx="24" cy="24" r="1.2"/>
    <circle cx="104" cy="24" r="1.2"/>
    <circle cx="24" cy="104" r="1.2"/>
    <circle cx="104" cy="104" r="1.2"/>
  </g>
  <!-- MCP Core -->
  <rect x="39" y="39" width="50" height="50" rx="11" fill="url(#core-grad)" stroke="#8B5CF6" stroke-width="0.5" filter="url(#glow)"/>
  <rect x="41" y="41" width="46" height="46" rx="9" fill="none" stroke="#8B5CF6" stroke-width="0.25" opacity="0.3"/>
  <!-- GitLab tanuki -->
  <svg x="44" y="44" width="40" height="40" viewBox="100 100 180 180">
    <path fill="#E24329" d="M265.26416,174.37243l-.2134-.55822-21.19899-55.30908c-.4236-1.08359-1.18542-1.99642-2.17699-2.62689-.98837-.63373-2.14749-.93253-3.32305-.87014-1.1689.06239-2.29195.48925-3.20809,1.21821-.90957.73554-1.56629,1.73047-1.87493,2.85346l-14.31327,43.80662h-57.90965l-14.31327-43.80662c-.30864-1.12299-.96536-2.11791-1.87493-2.85346-.91614-.72895-2.03911-1.15582-3.20809-1.21821-1.17548-.06239-2.33468.23641-3.32297.87014-.99166.63047-1.75348,1.5433-2.17707,2.62689l-21.19891,55.31237-.21348.55493c-6.28158,16.38521-.92929,34.90803,13.05891,45.48782.02621.01641.04922.03611.07552.05582l.18719.14119,32.29094,24.17392,15.97151,12.09024,9.71951,7.34871c2.34117,1.77316,5.57877,1.77316,7.92002,0l9.71943-7.34871,15.96822-12.09024,32.48142-24.31511c.02958-.02299.05588-.04269.08538-.06568,13.97834-10.57977,19.32735-29.09604,13.04905-45.47796Z"/>
    <path fill="#FC6D26" d="M265.26416,174.37243l-.2134-.55822c-10.5174,2.16062-20.20405,6.6099-28.49844,12.81593-.1346.0985-25.20497,19.05805-46.55171,35.19699,15.84998,11.98517,29.6477,22.40405,29.6477,22.40405l32.48142-24.31511c.02958-.02299.05588-.04269.08538-.06568,13.97834-10.57977,19.32735-29.09604,13.04905-45.47796Z"/>
    <path fill="#FCA326" d="M160.34962,244.23117l15.97151,12.09024,9.71951,7.34871c2.34117,1.77316,5.57877,1.77316,7.92002,0l9.71943-7.34871,15.96822-12.09024s-13.79772-10.41888-29.6477-22.40405c-15.85327,11.98517-29.65099,22.40405-29.65099,22.40405Z"/>
    <path fill="#FC6D26" d="M143.44561,186.63014c-8.29111-6.20274-17.97446-10.65531-28.49507-12.81264l-.21348.55493c-6.28158,16.38521-.92929,34.90803,13.05891,45.48782.02621.01641.04922.03611.07552.05582l.18719.14119,32.29094,24.17392s13.79772-10.41888,29.65099-22.40405c-21.34673-16.13894-46.42031-35.09848-46.55499-35.19699Z"/>
  </svg>
</svg>
